<svg width="72" height="72" viewBox="0 0 72 72" fill="none" xmlns="http://www.w3.org/2000/svg">
<path fill-rule="evenodd" clip-rule="evenodd" d="M58.5 22.6667C58.5 17.6033 54.3967 13.5 49.3333 13.5H22.6667C17.6033 13.5 13.5 17.6033 13.5 22.6667V49.3333C13.5 54.3967 17.6033 58.5 22.6667 58.5H49.3333C54.3967 58.5 58.5 54.3967 58.5 49.3333V22.6667ZM42.6667 29.3333V42.6667C42.6667 44.0467 43.7867 45.1667 45.1667 45.1667C46.5467 45.1667 47.6667 44.0467 47.6667 42.6667V29.3333C47.6667 27.9533 46.5467 26.8333 45.1667 26.8333C43.7867 26.8333 42.6667 27.9533 42.6667 29.3333ZM39.3333 42.6667V32.6667C39.3333 29.4467 36.7233 26.8333 33.5 26.8333H30.1667C26.9433 26.8333 24.3333 29.4467 24.3333 32.6667V42.6667C24.3333 44.0467 25.4533 45.1667 26.8333 45.1667C28.2133 45.1667 29.3333 44.0467 29.3333 42.6667V40.1667H34.3333V42.6667C34.3333 44.0467 35.4533 45.1667 36.8333 45.1667C38.2133 45.1667 39.3333 44.0467 39.3333 42.6667ZM29.3333 35.1667H34.3333V32.6667C34.3333 32.2067 33.96 31.8333 33.5 31.8333H30.1667C29.7067 31.8333 29.3333 32.2067 29.3333 32.6667V35.1667Z" fill="#A1F480"/>
<path fill-rule="evenodd" clip-rule="evenodd" d="M56 38.5H69.3333C70.7133 38.5 71.8333 37.38 71.8333 36C71.8333 34.62 70.7133 33.5 69.3333 33.5H56C54.62 33.5 53.5 34.62 53.5 36C53.5 37.38 54.62 38.5 56 38.5Z" fill="#A1F480"/>
<path fill-rule="evenodd" clip-rule="evenodd" d="M38.5 16V2.66663C38.5 1.28663 37.38 0.166626 36 0.166626C34.62 0.166626 33.5 1.28663 33.5 2.66663V16C33.5 17.38 34.62 18.5 36 18.5C37.38 18.5 38.5 17.38 38.5 16Z" fill="#A1F480"/>
<path fill-rule="evenodd" clip-rule="evenodd" d="M33.5 56V69.3333C33.5 70.7133 34.62 71.8333 36 71.8333C37.38 71.8333 38.5 70.7133 38.5 69.3333V56C38.5 54.62 37.38 53.5 36 53.5C34.62 53.5 33.5 54.62 33.5 56Z" fill="#A1F480"/>
<path fill-rule="evenodd" clip-rule="evenodd" d="M16 33.5H2.66663C1.28663 33.5 0.166626 34.62 0.166626 36C0.166626 37.38 1.28663 38.5 2.66663 38.5H16C17.38 38.5 18.5 37.38 18.5 36C18.5 34.62 17.38 33.5 16 33.5Z" fill="#A1F480"/>
<path fill-rule="evenodd" clip-rule="evenodd" d="M56 28.5H64.3333C65.7133 28.5 66.8333 27.38 66.8333 26C66.8333 24.62 65.7133 23.5 64.3333 23.5H56C54.62 23.5 53.5 24.62 53.5 26C53.5 27.38 54.62 28.5 56 28.5Z" fill="#A1F480"/>
<path fill-rule="evenodd" clip-rule="evenodd" d="M28.5 16V7.66663C28.5 6.28663 27.38 5.16663 26 5.16663C24.62 5.16663 23.5 6.28663 23.5 7.66663V16C23.5 17.38 24.62 18.5 26 18.5C27.38 18.5 28.5 17.38 28.5 16Z" fill="#A1F480"/>
<path fill-rule="evenodd" clip-rule="evenodd" d="M23.5 56V64.3333C23.5 65.7133 24.62 66.8333 26 66.8333C27.38 66.8333 28.5 65.7133 28.5 64.3333V56C28.5 54.62 27.38 53.5 26 53.5C24.62 53.5 23.5 54.62 23.5 56Z" fill="#A1F480"/>
<path fill-rule="evenodd" clip-rule="evenodd" d="M16 23.5H7.66663C6.28663 23.5 5.16663 24.62 5.16663 26C5.16663 27.38 6.28663 28.5 7.66663 28.5H16C17.38 28.5 18.5 27.38 18.5 26C18.5 24.62 17.38 23.5 16 23.5Z" fill="#A1F480"/>
<path fill-rule="evenodd" clip-rule="evenodd" d="M56 48.5H64.3333C65.7133 48.5 66.8333 47.38 66.8333 46C66.8333 44.62 65.7133 43.5 64.3333 43.5H56C54.62 43.5 53.5 44.62 53.5 46C53.5 47.38 54.62 48.5 56 48.5Z" fill="#A1F480"/>
<path fill-rule="evenodd" clip-rule="evenodd" d="M48.5 16V7.66663C48.5 6.28663 47.38 5.16663 46 5.16663C44.62 5.16663 43.5 6.28663 43.5 7.66663V16C43.5 17.38 44.62 18.5 46 18.5C47.38 18.5 48.5 17.38 48.5 16Z" fill="#A1F480"/>
<path fill-rule="evenodd" clip-rule="evenodd" d="M43.5 56V64.3333C43.5 65.7133 44.62 66.8333 46 66.8333C47.38 66.8333 48.5 65.7133 48.5 64.3333V56C48.5 54.62 47.38 53.5 46 53.5C44.62 53.5 43.5 54.62 43.5 56Z" fill="#A1F480"/>
<path fill-rule="evenodd" clip-rule="evenodd" d="M16 43.5H7.66663C6.28663 43.5 5.16663 44.62 5.16663 46C5.16663 47.38 6.28663 48.5 7.66663 48.5H16C17.38 48.5 18.5 47.38 18.5 46C18.5 44.62 17.38 43.5 16 43.5Z" fill="#A1F480"/>
</svg>
