<svg width="60" height="60" viewBox="0 0 60 60" fill="none" xmlns="http://www.w3.org/2000/svg">
<path d="M42.6251 29.375C41.7501 29.375 40.9751 28.75 40.8001 27.875C39.9251 23.5 36.5501 20.1 32.1501 19.225C29.7251 18.7 30.4751 15.125 32.8751 15.55C38.7501 16.7 43.3001 21.25 44.4751 27.15C44.6751 28.175 44.0251 29.15 43.0001 29.35C42.8751 29.35 42.7501 29.375 42.6251 29.375Z" fill="black"/>
<path d="M52.3499 29.375C51.3999 29.375 50.5999 28.675 50.4999 27.7C49.4499 18.2 41.7998 10.55 32.2998 9.49997C31.2749 9.39997 30.5249 8.44997 30.6499 7.42497C30.7499 6.39997 31.7249 5.64997 32.7249 5.77497C43.9499 7.02497 52.9999 16.075 54.2499 27.3C54.3749 28.325 53.6249 29.25 52.5999 29.375C52.5249 29.375 52.4498 29.375 52.3998 29.375H52.3499Z" fill="black"/>
<path d="M54.8751 41.8C54.8751 41.8 54.7251 41.675 54.6251 41.625L48.0751 37.7C45.8501 35.925 42.6001 36.125 40.5751 38.125L38.5251 40.2C37.1251 41.6 35.0501 40.85 34.4501 40.575C27.5751 37.525 22.5251 32.475 19.4501 25.575C19.1751 24.975 18.4251 22.925 19.8251 21.5L21.8751 19.45C23.9001 17.425 24.0751 14.15 22.3001 11.925L18.3501 5.37504C18.3501 5.37504 18.2501 5.20004 18.1751 5.12504C17.1501 3.92504 15.6751 3.20004 14.1001 3.12504C12.4751 3.02504 10.9751 3.65004 9.87507 4.77504L5.90007 8.75004C3.85007 10.8 2.85007 13.65 3.20007 16.55C4.40007 26.9 8.95007 36.275 16.3251 43.675C23.7251 51.075 33.1001 55.6 43.4501 56.8C46.3001 57.125 49.2001 56.15 51.2501 54.1L55.2251 50.125C56.3501 49 56.9501 47.475 56.8751 45.9C56.8001 44.325 56.0751 42.825 54.8751 41.825V41.8Z" fill="black"/>
</svg>
