<svg width="54" height="54" viewBox="0 0 54 54" fill="none" xmlns="http://www.w3.org/2000/svg">
<path fill-rule="evenodd" clip-rule="evenodd" d="M53.875 12C53.875 8.85 52.625 5.83 50.3975 3.6025C48.17 1.375 45.15 0.125 42 0.125H12C8.85 0.125 5.83 1.375 3.6025 3.6025C1.375 5.83 0.125 8.85 0.125 12V42C0.125 45.15 1.375 48.17 3.6025 50.3975C5.83 52.625 8.85 53.875 12 53.875H42C45.15 53.875 48.17 52.625 50.3975 50.3975C52.625 48.17 53.875 45.15 53.875 42V12ZM28.22 17.4075L22.22 35.4075C21.895 36.39 22.425 37.4525 23.4075 37.78C24.39 38.105 25.4525 37.575 25.78 36.5925L31.78 18.5925C32.105 17.61 31.575 16.5475 30.5925 16.22C29.61 15.895 28.5475 16.425 28.22 17.4075ZM34.675 22.325L39.3475 27L34.675 31.675C33.9425 32.405 33.9425 33.595 34.675 34.325C35.405 35.0575 36.595 35.0575 37.325 34.325L43.325 28.325C44.0575 27.5925 44.0575 26.4075 43.325 25.675L37.325 19.675C36.595 18.9425 35.405 18.9425 34.675 19.675C33.9425 20.405 33.9425 21.595 34.675 22.325ZM16.675 19.675L10.675 25.675C9.9425 26.4075 9.9425 27.5925 10.675 28.325L16.675 34.325C17.405 35.0575 18.595 35.0575 19.325 34.325C20.0575 33.595 20.0575 32.405 19.325 31.675L14.6525 27L19.325 22.325C20.0575 21.595 20.0575 20.405 19.325 19.675C18.595 18.9425 17.405 18.9425 16.675 19.675Z" fill="black"/>
</svg>
