<svg width="60" height="60" viewBox="0 0 60 60" fill="none" xmlns="http://www.w3.org/2000/svg">
<path d="M54.875 12.675C53.6 11.35 51.875 10.625 50 10.625H10C8.15 10.625 6.425 11.35 5.175 12.625C3.85 13.9 3.125 15.625 3.125 17.5V42.5C3.125 46.3 6.2 49.375 10 49.375H50C53.8 49.375 56.875 46.3 56.875 42.5V17.5C56.875 15.65 56.15 13.925 54.875 12.675ZM48.925 21.225L38.4 31.75C36.15 34 33.175 35.225 30 35.225C26.825 35.225 23.85 34 21.6 31.75L11 21.15C10.275 20.425 10.275 19.225 11 18.5C11.725 17.775 12.925 17.775 13.65 18.5L24.25 29.1C27.325 32.175 32.675 32.175 35.75 29.1L46.275 18.575C47 17.85 48.2 17.85 48.925 18.575C49.65 19.3 49.65 20.5 48.925 21.225Z" fill="black"/>
</svg>
