<svg width="495" height="584" viewBox="0 0 495 584" fill="none" xmlns="http://www.w3.org/2000/svg">
<path d="M61.05 88.4401H0V115.665H61.05V88.4401Z" fill="#A1F480"/>
<path d="M143.055 295.68H249.975L187.11 358.545H0V583.44L27.225 556.215L88.44 495L115.665 467.775V440.715V429.99V409.365H88.44V457.215L27.225 518.43V385.77H197.67L314.985 268.455H143.055V295.68Z" fill="#A1F480"/>
<path d="M143.055 88.4401V115.665H429.99L367.29 178.365H117.315L0 295.68H65.01V268.455L88.44 244.86L125.07 208.23L127.71 205.59H377.85L495 88.4401H143.055Z" fill="#A1F480"/>
<path d="M115.665 0H88.44V179.19L115.665 152.13V0Z" fill="#A1F480"/>
<path d="M88.44 272.91V335.115H115.665V245.685L88.44 272.91Z" fill="#A1F480"/>
</svg>
