<svg width="60" height="60" viewBox="0 0 60 60" fill="none" xmlns="http://www.w3.org/2000/svg">
<path fill-rule="evenodd" clip-rule="evenodd" d="M45 3.24255C51.57 3.24255 56.875 8.44755 56.875 14.8251C56.875 19.0826 55.1575 23.0676 53.0525 26.3026C50 30.9951 46.18 34.0751 46.18 34.0751C45.4925 34.6326 44.5075 34.6326 43.82 34.0751C43.82 34.0751 40 30.9951 36.9475 26.3026C34.8425 23.0676 33.125 19.0826 33.125 14.8251C33.125 8.44755 38.43 3.24255 45 3.24255ZM45 10.0076C41.895 10.0076 39.375 12.5276 39.375 15.6326C39.375 18.7376 41.895 21.2576 45 21.2576C48.105 21.2576 50.625 18.7376 50.625 15.6326C50.625 12.5276 48.105 10.0076 45 10.0076ZM45 13.7576C46.035 13.7576 46.875 14.5976 46.875 15.6326C46.875 16.6676 46.035 17.5076 45 17.5076C43.965 17.5076 43.125 16.6676 43.125 15.6326C43.125 14.5976 43.965 13.7576 45 13.7576Z" fill="#A1F480"/>
<path fill-rule="evenodd" clip-rule="evenodd" d="M23.125 17.8551V47.8551C23.125 48.8801 22.3025 49.7126 21.2775 49.7301C21.1925 49.7301 21.105 49.7501 21.025 49.7876L7.56 56.0026C6.5925 56.4476 5.4625 56.3701 4.565 55.7976C3.6675 55.2226 3.125 54.2301 3.125 53.1651V26.7176C3.125 25.0101 4.1175 23.4601 5.6675 22.7451L19.455 16.3826C20.015 16.1226 20.6175 15.9876 21.2225 15.9801C21.725 15.9726 22.2075 16.1651 22.565 16.5176C22.9225 16.8701 23.125 17.3526 23.125 17.8551Z" fill="#A1F480"/>
<path fill-rule="evenodd" clip-rule="evenodd" d="M56.875 24.6551V46.0176C56.875 47.7251 55.8825 49.2751 54.3325 49.9901L40.545 56.3551C39.42 56.8726 38.1275 56.8926 36.99 56.4026L21.535 49.7801C21.37 49.7101 21.1875 49.7126 21.025 49.7876L7.56 56.0026C6.5925 56.4476 5.4625 56.3701 4.565 55.7976C3.6675 55.2226 3.125 54.2301 3.125 53.1651V26.7176C3.125 25.0101 4.1175 23.4601 5.6675 22.7451L19.455 16.3826C20.58 15.8626 21.8725 15.8451 23.01 16.3326L31.305 19.8876C31.7575 21.6001 32.41 23.2376 33.185 24.7726L21.535 19.7801C21.37 19.7101 21.1875 19.7126 21.025 19.7876L7.2375 26.1501C7.0175 26.2526 6.875 26.4751 6.875 26.7176V52.1876L19.455 46.3826C20.58 45.8626 21.8725 45.8451 23.01 46.3326L38.465 52.9576C38.63 53.0251 38.8125 53.0226 38.975 52.9501L52.7625 46.5851C52.9825 46.4826 53.125 46.2626 53.125 46.0176V30.4626C53.805 29.6076 54.4925 28.6726 55.1475 27.6676C55.765 26.7176 56.3475 25.7101 56.875 24.6551Z" fill="#A1F480"/>
<path fill-rule="evenodd" clip-rule="evenodd" d="M56.875 24.655V46.0175C56.875 47.725 55.8825 49.275 54.3325 49.99L40.545 56.355C39.985 56.6125 39.3825 56.7475 38.7775 56.7575C38.275 56.765 37.7925 56.57 37.435 56.2175C37.0775 55.865 36.875 55.385 36.875 54.8825V30.4625C39.58 33.8575 42.1875 35.97 42.25 36.02C43.855 37.3175 46.145 37.3175 47.75 36.02C47.8275 35.9575 51.895 32.6625 55.1475 27.6675C55.765 26.7175 56.3475 25.71 56.875 24.655Z" fill="#A1F480"/>
</svg>
