<svg width="60" height="54" viewBox="0 0 60 54" fill="none" xmlns="http://www.w3.org/2000/svg">
<path fill-rule="evenodd" clip-rule="evenodd" d="M0.625 44.5V9.5C0.625 4.3225 4.8225 0.125 10 0.125H50C55.1775 0.125 59.375 4.3225 59.375 9.5V44.5C59.375 49.6775 55.1775 53.875 50 53.875H10C7.5125 53.875 5.13 52.8875 3.37 51.13C1.6125 49.37 0.625 46.9875 0.625 44.5ZM4.375 18.875V44.5C4.375 45.9925 4.9675 47.4225 6.0225 48.4775C7.0775 49.5325 8.5075 50.125 10 50.125H50C53.1075 50.125 55.625 47.6075 55.625 44.5V18.875H4.375ZM27.5 7C26.12 7 25 8.12 25 9.5C25 10.88 26.12 12 27.5 12C28.88 12 30 10.88 30 9.5C30 8.12 28.88 7 27.5 7ZM20 7C18.62 7 17.5 8.12 17.5 9.5C17.5 10.88 18.62 12 20 12C21.38 12 22.5 10.88 22.5 9.5C22.5 8.12 21.38 7 20 7ZM12.5 7C11.12 7 10 8.12 10 9.5C10 10.88 11.12 12 12.5 12C13.88 12 15 10.88 15 9.5C15 8.12 13.88 7 12.5 7Z" fill="black"/>
<path fill-rule="evenodd" clip-rule="evenodd" d="M21.875 37.625C22.5375 37.625 23.175 37.3625 23.6425 36.8925C24.1125 36.425 24.375 35.7875 24.375 35.125V29.5C24.375 28.465 25.215 27.625 26.25 27.625C27.285 27.625 28.125 28.465 28.125 29.5V35.125C28.125 36.7825 27.4675 38.3725 26.295 39.545C25.1225 40.7175 23.5325 41.375 21.875 41.375C20.2175 41.375 18.6275 40.7175 17.455 39.545C16.2825 38.3725 15.625 36.7825 15.625 35.125V29.5C15.625 28.465 16.465 27.625 17.5 27.625C18.535 27.625 19.375 28.465 19.375 29.5V35.125C19.375 35.7875 19.6375 36.425 20.1075 36.8925C20.575 37.3625 21.2125 37.625 21.875 37.625Z" fill="black"/>
<path fill-rule="evenodd" clip-rule="evenodd" d="M31.175 30.825C30.4425 30.095 30.4425 28.905 31.175 28.175C31.905 27.4425 33.095 27.4425 33.825 28.175L43.825 38.175C44.5575 38.905 44.5575 40.095 43.825 40.825C43.095 41.5575 41.905 41.5575 41.175 40.825L31.175 30.825Z" fill="black"/>
<path fill-rule="evenodd" clip-rule="evenodd" d="M41.175 28.175C41.905 27.4425 43.095 27.4425 43.825 28.175C44.5575 28.905 44.5575 30.095 43.825 30.825L33.825 40.825C33.095 41.5575 31.905 41.5575 31.175 40.825C30.4425 40.095 30.4425 38.905 31.175 38.175L41.175 28.175Z" fill="black"/>
</svg>
